<?xml version="1.0" encoding="UTF-8" standalone="no"?>
<!-- Created with Inkscape (http://www.inkscape.org/) -->

<svg
   xmlns:dc="http://purl.org/dc/elements/1.1/"
   xmlns:cc="http://creativecommons.org/ns#"
   xmlns:rdf="http://www.w3.org/1999/02/22-rdf-syntax-ns#"
   xmlns:svg="http://www.w3.org/2000/svg"
   xmlns="http://www.w3.org/2000/svg"
   xmlns:sodipodi="http://sodipodi.sourceforge.net/DTD/sodipodi-0.dtd"
   xmlns:inkscape="http://www.inkscape.org/namespaces/inkscape"
   width="100mm"
   height="100mm"
   viewBox="0 0 100 100"
   version="1.1"
   id="svg8"
   inkscape:version="0.92.3 (2405546, 2018-03-11)"
   sodipodi:docname="icon_under.svg">
  <defs
     id="defs2" />
  <sodipodi:namedview
     id="base"
     pagecolor="#ffffff"
     bordercolor="#666666"
     borderopacity="1.0"
     inkscape:pageopacity="0.0"
     inkscape:pageshadow="2"
     inkscape:zoom="4"
     inkscape:cx="192.64096"
     inkscape:cy="144.52382"
     inkscape:document-units="mm"
     inkscape:current-layer="layer1"
     showgrid="false"
     inkscape:window-width="1920"
     inkscape:window-height="1017"
     inkscape:window-x="1912"
     inkscape:window-y="-8"
     inkscape:window-maximized="1"
     gridtolerance="15">
    <inkscape:grid
       type="xygrid"
       id="grid3721"
       units="mm"
       spacingx="0.99999999"
       spacingy="0.99999999" />
  </sodipodi:namedview>
  <metadata
     id="metadata5">
    <rdf:RDF>
      <cc:Work
         rdf:about="">
        <dc:format>image/svg+xml</dc:format>
        <dc:type
           rdf:resource="http://purl.org/dc/dcmitype/StillImage" />
        <dc:title></dc:title>
      </cc:Work>
    </rdf:RDF>
  </metadata>
  <g
     inkscape:label="Layer 1"
     inkscape:groupmode="layer"
     id="layer1"
     transform="translate(0,-197)">
    <path
       style="fill:none;stroke:#000000;stroke-width:0.26458332px;stroke-linecap:butt;stroke-linejoin:miter;stroke-opacity:0.31658292"
       d="m 15,282 c 0,0 0,5 35,5 35,0 34.999998,-5 34.999998,-5 v -10 c 0,0 2e-6,-5 -34.999998,-5 -35,0 -35,5 -35,5 z"
       id="path22"
       inkscape:connector-curvature="0"
       sodipodi:nodetypes="czcczcc" />
    <path
       style="fill:none;stroke:#000000;stroke-width:0.26458332px;stroke-linecap:butt;stroke-linejoin:miter;stroke-opacity:0.31658292"
       d="m 50,242 c -0.153809,0.21365 -0.310058,0.43827 -0.466308,0.67267 -0.15625,0.2344 -0.312499,0.47857 -0.466307,0.73128 -0.153809,0.25272 -0.305176,0.51398 -0.45166,0.78257 -0.146484,0.26859 -0.288085,0.54451 -0.422363,0.82653 -0.134277,0.28203 -0.26123,0.57016 -0.378417,0.86318 -0.117188,0.29302 -0.22461,0.59093 -0.319825,0.8925 -0.09522,0.30158 -0.178223,0.60682 -0.246582,0.9145 -0.06836,0.30769 -0.122071,0.61782 -0.158693,0.92918 -0.03662,0.31136 -0.05615,0.62395 -0.05615,0.93654 0,0.18741 0.02192,0.37129 0.06303,0.55135 0.04111,0.18006 0.101396,0.35629 0.178128,0.52842 0.07673,0.17213 0.169906,0.34015 0.276783,0.50376 0.106877,0.16361 0.227456,0.32283 0.358997,0.47735 0.131541,0.15452 0.274044,0.30434 0.424768,0.44918 0.150724,0.14485 0.30967,0.28471 0.474096,0.41929 0.164426,0.13458 0.334333,0.26389 0.506981,0.38764 1.924905,1.27979 2.234529,1.79767 -1.357861,1.69818 -0.703125,-0.0195 -1.464844,-0.0439 -2.270508,-0.0745 -0.805664,-0.0305 -1.655274,-0.0671 -2.53418,-0.11108 -0.878906,-0.044 -1.78711,-0.0952 -2.709961,-0.15503 -0.922852,-0.0598 -1.860352,-0.12817 -2.797852,-0.2063 -0.9375,-0.0781 -1.875,-0.16602 -2.797852,-0.26489 -0.922851,-0.0989 -1.831054,-0.20874 -2.709961,-0.33081 -0.878906,-0.12207 -1.728515,-0.25635 -2.534179,-0.40406 -0.805664,-0.1477 -1.567383,-0.30883 -2.270508,-0.48461 -0.703125,-0.17579 -1.347657,-0.36622 -1.918946,-0.57251 -0.571289,-0.2063 -1.069336,-0.42847 -1.479492,-0.66773 -0.410156,-0.23926 -0.732422,-0.4956 -0.952148,-0.77026 -0.219727,-0.27466 -0.336914,-0.56763 -0.336914,-0.88013 0,-0.3125 0.114795,-0.62537 0.330036,-0.93735 0.215242,-0.31197 0.530928,-0.62305 0.932712,-0.93197 0.401783,-0.30891 0.889663,-0.61567 1.44929,-0.91899 0.559626,-0.30332 1.191,-0.60321 1.879771,-0.89841 0.688772,-0.2952 1.434941,-0.58569 2.224158,-0.87023 0.789217,-0.28453 1.621483,-0.5631 2.482447,-0.83444 0.860964,-0.27134 1.750627,-0.53544 2.654639,-0.79105 0.904013,-0.25561 1.822375,-0.50272 2.740736,-0.74006 0.918362,-0.23735 1.836724,-0.46493 2.740736,-0.68147 0.904013,-0.21655 1.793676,-0.42206 2.65464,-0.61528 0.860964,-0.19321 1.693229,-0.37412 2.482447,-0.54147 0.789217,-0.16734 1.535386,-0.32112 2.224157,-0.46007 0.688771,-0.13895 1.320145,-0.26306 1.879772,-0.37107 3.932166,-0.92804 1.954602,0.17931 0.678347,1.94965 z"
       id="path26"
       inkscape:connector-curvature="0"
       sodipodi:nodetypes="csssssssssssssssccssssssssssssssssssssssssccc" />
    <path
       style="fill:none;stroke:#000000;stroke-width:0.26458332px;stroke-linecap:butt;stroke-linejoin:miter;stroke-opacity:0.31658292"
       d="M 64.999999,267.6974 V 278 c -9,-1 -15,0 -14.999999,4 -10e-7,5 -12.613167,5 -20,4.23489"
       id="path28"
       inkscape:connector-curvature="0"
       sodipodi:nodetypes="cccc" />
    <path
       style="fill:none;stroke:#000000;stroke-width:0.26458332px;stroke-linecap:butt;stroke-linejoin:miter;stroke-opacity:0.31658292"
       d="m 30,285.67666 -1.999999,-9.958 C 51,276 51.000001,262 52.999999,252"
       id="path30"
       inkscape:connector-curvature="0"
       sodipodi:nodetypes="ccc" />
    <path
       style="fill:none;stroke:#000000;stroke-width:0.26458332px;stroke-linecap:butt;stroke-linejoin:miter;stroke-opacity:0.31658292"
       d="m 67.999999,252 c -2,15 8,20 16.999999,20"
       id="path32"
       inkscape:connector-curvature="0"
       sodipodi:nodetypes="cc" />
    <path
       style="fill:none;stroke:#000000;stroke-width:0.26458332px;stroke-linecap:butt;stroke-linejoin:miter;stroke-opacity:0.31658292"
       d="m 50.000003,242 c 0.15381,0.21365 0.310057,0.43827 0.466307,0.67267 0.156252,0.2344 0.312499,0.47857 0.466307,0.73128 0.15381,0.25272 0.305177,0.51398 0.451661,0.78257 0.146484,0.26859 0.288085,0.54451 0.422363,0.82653 0.134277,0.28203 0.26123,0.57016 0.378417,0.86318 0.117188,0.29302 0.22461,0.59093 0.319825,0.8925 0.09522,0.30158 0.178223,0.60682 0.246582,0.9145 0.06836,0.30769 0.122071,0.61782 0.158693,0.92918 0.03662,0.31136 0.05615,0.62395 0.05615,0.93654 0,0.18741 -0.02192,0.37129 -0.06303,0.55135 -0.04111,0.18006 -0.101396,0.35629 -0.178128,0.52842 -0.07673,0.17213 -0.169906,0.34015 -0.276783,0.50376 -0.106877,0.16361 -0.227456,0.32283 -0.358997,0.47735 -0.131541,0.15452 -0.274044,0.30434 -0.424768,0.44918 -0.150724,0.14485 -0.30967,0.28471 -0.474096,0.41929 -0.164425,0.13458 -0.334333,0.26389 -0.506981,0.38764 -1.924905,1.27979 -2.234528,1.79767 1.357861,1.69818 0.703125,-0.0195 1.464844,-0.0439 2.270508,-0.0745 0.805664,-0.0305 1.655274,-0.0671 2.53418,-0.11108 0.878906,-0.044 1.78711,-0.0952 2.709961,-0.15503 0.922852,-0.0598 1.860352,-0.12817 2.797852,-0.2063 0.9375,-0.0781 1.875,-0.16602 2.797852,-0.26489 0.922851,-0.0989 1.831054,-0.20874 2.709961,-0.33081 0.878906,-0.12207 1.728515,-0.25635 2.534179,-0.40406 0.805664,-0.1477 1.567383,-0.30883 2.270508,-0.48461 0.703125,-0.17579 1.347657,-0.36622 1.918946,-0.57251 0.571289,-0.2063 1.069336,-0.42847 1.479492,-0.66773 0.410156,-0.23926 0.732422,-0.4956 0.952148,-0.77026 0.219727,-0.27466 0.336914,-0.56763 0.336914,-0.88013 0,-0.3125 -0.114795,-0.62537 -0.330036,-0.93735 -0.215242,-0.31197 -0.530928,-0.62305 -0.932712,-0.93197 -0.401783,-0.30891 -0.889663,-0.61567 -1.44929,-0.91899 -0.559626,-0.30332 -1.191,-0.60321 -1.879771,-0.89841 -0.688772,-0.2952 -1.434941,-0.58569 -2.224158,-0.87023 -0.789217,-0.28453 -1.621483,-0.5631 -2.482447,-0.83444 -0.860964,-0.27134 -1.750627,-0.53544 -2.654639,-0.79105 -0.904013,-0.25561 -1.822375,-0.50272 -2.740736,-0.74006 -0.918362,-0.23735 -1.836724,-0.46493 -2.740736,-0.68147 -0.904013,-0.21655 -1.793676,-0.42206 -2.65464,-0.61528 -0.860964,-0.19321 -1.693229,-0.37412 -2.482447,-0.54147 -0.789217,-0.16734 -1.535386,-0.32112 -2.224157,-0.46007 -0.688771,-0.13895 -1.320145,-0.26306 -1.879771,-0.37107 C 46.746181,239.12231 48.723743,240.22966 50,242 Z"
       id="path26-0"
       inkscape:connector-curvature="0"
       sodipodi:nodetypes="csssssssssssssssccssssssssssssssssssssssssccc" />
    <path
       style="fill:none;stroke:#000000;stroke-width:0.26458332px;stroke-linecap:butt;stroke-linejoin:miter;stroke-opacity:0.31658292"
       d="m 47,252 c 2.000001,10 3,18 3,30"
       id="path49"
       inkscape:connector-curvature="0"
       sodipodi:nodetypes="cc" />
    <path
       style="fill:none;stroke:#000000;stroke-width:0.26458332px;stroke-linecap:butt;stroke-linejoin:miter;stroke-opacity:0.31658292"
       d="M 31.999999,252 C 34,267 28,267 19.999999,269.3518"
       id="path51"
       inkscape:connector-curvature="0"
       sodipodi:nodetypes="cc" />
  </g>
</svg>
