<?xml version="1.0" encoding="UTF-8" standalone="no"?>
<!-- Created with Inkscape (http://www.inkscape.org/) -->

<svg
   xmlns:dc="http://purl.org/dc/elements/1.1/"
   xmlns:cc="http://creativecommons.org/ns#"
   xmlns:rdf="http://www.w3.org/1999/02/22-rdf-syntax-ns#"
   xmlns:svg="http://www.w3.org/2000/svg"
   xmlns="http://www.w3.org/2000/svg"
   xmlns:sodipodi="http://sodipodi.sourceforge.net/DTD/sodipodi-0.dtd"
   xmlns:inkscape="http://www.inkscape.org/namespaces/inkscape"
   width="100mm"
   height="100mm"
   viewBox="0 0 100 100"
   version="1.1"
   id="svg8"
   inkscape:version="0.92.3 (2405546, 2018-03-11)"
   sodipodi:docname="icon_under_left.svg"
   inkscape:export-filename="D:\Eclipse Projects\PacoSako\PacoSako\Resources\icon_under_left_white.png"
   inkscape:export-xdpi="18.288"
   inkscape:export-ydpi="18.288">
  <defs
     id="defs2" />
  <sodipodi:namedview
     id="base"
     pagecolor="#ffffff"
     bordercolor="#666666"
     borderopacity="1.0"
     inkscape:pageopacity="0.0"
     inkscape:pageshadow="2"
     inkscape:zoom="2"
     inkscape:cx="197.79597"
     inkscape:cy="205.13298"
     inkscape:document-units="mm"
     inkscape:current-layer="layer1"
     showgrid="true"
     inkscape:window-width="1920"
     inkscape:window-height="1057"
     inkscape:window-x="-8"
     inkscape:window-y="-4"
     inkscape:window-maximized="1"
     gridtolerance="15">
    <inkscape:grid
       type="xygrid"
       id="grid3721"
       units="mm"
       spacingx="0.99999999"
       spacingy="0.99999999" />
  </sodipodi:namedview>
  <metadata
     id="metadata5">
    <rdf:RDF>
      <cc:Work
         rdf:about="">
        <dc:format>image/svg+xml</dc:format>
        <dc:type
           rdf:resource="http://purl.org/dc/dcmitype/StillImage" />
        <dc:title />
      </cc:Work>
    </rdf:RDF>
  </metadata>
  <g
     inkscape:label="Layer 1"
     inkscape:groupmode="layer"
     id="layer1"
     transform="translate(0,-197)">
    <path
       style="opacity:1;fill:#ffffff;stroke:#000000;stroke-width:3;stroke-linecap:butt;stroke-linejoin:miter;stroke-miterlimit:4;stroke-dasharray:none;stroke-opacity:1;fill-opacity:1"
       d="m 49.171934,245.34656 c 0.889043,-0.16264 1.115037,-0.2246 1.736416,-0.31572 0.621379,-0.0911 0.857397,0.11129 0.473569,0.54958 -3.242741,3.55689 -6.827385,9.9818 -2.114434,12.60994 1.632822,0.94102 1.975595,1.67827 0.17339,1.67895 -0.604141,-0.0136 -1.097198,-0.0215 -1.701339,-0.0351 -0.214434,-0.009 -0.325079,0.16391 -0.274787,0.40925 0.928876,3.9374 0.831989,5.49115 1.28459,9.3463 0.05202,0.60358 0.294325,0.58758 1.026063,0.58252 2.807777,0.002 11.270131,0.19001 13.936145,0.33158 0.484046,0.0138 0.794863,0.13286 0.76443,0.77457 -0.03412,0.71937 0.0048,1.54902 0.0048,3.74299 0,0.71675 -0.239781,0.83174 -1.031989,0.75643 -0.941234,-0.0895 -13.927174,-1.6573 -13.927174,4.04481 0,5.63596 -15.100137,4.6488 -20.050781,4.29556 -7.822662,-0.71274 -15.076972,-2.02104 -15.076972,-4.21371 0.01244,-3.23013 0.02484,0.67435 0.03727,-4.39875 0,-2.38299 5.759838,-3.2613 8.987875,-4.0538 7.627003,-1.87246 9.559857,-4.31052 8.829866,-11.97773 -0.05393,-0.4933 -0.218126,-0.82551 -1.084313,-0.90501 -8.316275,-1.0088 -20.390633,-5.5723 18.00737,-13.22271 z"
       id="path858-5"
       inkscape:connector-curvature="0"
       sodipodi:nodetypes="czccccccccsssccccsccsc"
       inkscape:export-xdpi="32.360001"
       inkscape:export-ydpi="32.360001" />
  </g>
</svg>
