<?xml version="1.0" encoding="UTF-8" standalone="no"?>
<!-- Created with Inkscape (http://www.inkscape.org/) -->

<svg
   xmlns:dc="http://purl.org/dc/elements/1.1/"
   xmlns:cc="http://creativecommons.org/ns#"
   xmlns:rdf="http://www.w3.org/1999/02/22-rdf-syntax-ns#"
   xmlns:svg="http://www.w3.org/2000/svg"
   xmlns="http://www.w3.org/2000/svg"
   xmlns:sodipodi="http://sodipodi.sourceforge.net/DTD/sodipodi-0.dtd"
   xmlns:inkscape="http://www.inkscape.org/namespaces/inkscape"
   width="100mm"
   height="100mm"
   viewBox="0 0 100 100"
   version="1.1"
   id="svg8"
   inkscape:version="0.92.3 (2405546, 2018-03-11)"
   sodipodi:docname="icon_under_black_right.svg"
   inkscape:export-filename="D:\Eclipse Projects\PacoSako\PacoSako\Resources\png\icon_under_black_right.png"
   inkscape:export-xdpi="130.05"
   inkscape:export-ydpi="130.05">
  <defs
     id="defs2" />
  <sodipodi:namedview
     id="base"
     pagecolor="#ffffff"
     bordercolor="#666666"
     borderopacity="1.0"
     inkscape:pageopacity="0.0"
     inkscape:pageshadow="2"
     inkscape:zoom="2"
     inkscape:cx="54.61507"
     inkscape:cy="186.90761"
     inkscape:document-units="mm"
     inkscape:current-layer="layer1"
     showgrid="true"
     inkscape:window-width="1920"
     inkscape:window-height="1017"
     inkscape:window-x="1912"
     inkscape:window-y="-8"
     inkscape:window-maximized="1"
     gridtolerance="15">
    <inkscape:grid
       type="xygrid"
       id="grid3721"
       units="mm"
       spacingx="0.99999999"
       spacingy="0.99999999" />
  </sodipodi:namedview>
  <metadata
     id="metadata5">
    <rdf:RDF>
      <cc:Work
         rdf:about="">
        <dc:format>image/svg+xml</dc:format>
        <dc:type
           rdf:resource="http://purl.org/dc/dcmitype/StillImage" />
        <dc:title />
      </cc:Work>
    </rdf:RDF>
  </metadata>
  <g
     inkscape:label="Layer 1"
     inkscape:groupmode="layer"
     id="layer1"
     transform="translate(0,-197)">
    <path
       style="opacity:1;fill:#000000;fill-opacity:1;stroke:#000000;stroke-width:3;stroke-linecap:butt;stroke-linejoin:miter;stroke-miterlimit:4;stroke-dasharray:none;stroke-opacity:1"
       d="m 50.759494,245.34656 c -0.889043,-0.16264 -1.115037,-0.2246 -1.736416,-0.31572 -0.621379,-0.0911 -0.857397,0.11129 -0.473569,0.54958 3.242741,3.55689 6.827385,9.9818 2.114434,12.60994 -1.632822,0.94102 -1.975595,1.67827 -0.17339,1.67895 0.604141,-0.0136 1.097198,-0.0215 1.701339,-0.0351 0.214434,-0.009 0.325079,0.16391 0.274787,0.40925 l -1.017294,5.16832 c -2.564674,13.04943 -13.480104,13.4254 -21.23663,13.4254 -0.688674,0 -0.73557,0.3484 -0.73557,0.84355 -0.01314,3.10106 -0.0064,0.72084 -0.0064,3.87921 0.09778,0.42687 0,0.55823 0.53457,0.616 20.390369,1.437 54.473842,0.73243 54.473842,-4.27143 -0.01242,-3.23014 -0.02485,0.67435 -0.03727,-4.39876 0,-2.38299 -7.218522,-3.1403 -10.414426,-4.05379 -5.732731,-1.6386 -6.395803,-5.6124 -6.228051,-12.1882 0.0126,-0.44783 0.101196,-0.61504 0.967383,-0.69454 8.316275,-1.0088 20.390633,-5.5723 -18.00737,-13.22271 z"
       id="path858"
       inkscape:connector-curvature="0"
       sodipodi:nodetypes="czccccccccccccsccsc"
       inkscape:export-xdpi="32.360001"
       inkscape:export-ydpi="32.360001" />
  </g>
</svg>
